<svg width="100" height="100" viewBox="0 0 100 100" fill="none" xmlns="http://www.w3.org/2000/svg">
<mask id="mask0_20_49942" style="mask-type:luminance" maskUnits="userSpaceOnUse" x="0" y="0" width="100" height="100">
<path d="M100 0H0V100H100V0Z" fill="white"/>
</mask>
<g mask="url(#mask0_20_49942)">
<mask id="mask1_20_49942" style="mask-type:luminance" maskUnits="userSpaceOnUse" x="0" y="0" width="100" height="100">
<path d="M100 0H0V100H100V0Z" fill="white"/>
<path d="M100 0H0V100H100V0Z" fill="white"/>
</mask>
<g mask="url(#mask1_20_49942)">
<path fill-rule="evenodd" clip-rule="evenodd" d="M25 3.125C12.9188 3.125 3.125 12.9188 3.125 25V75C3.125 87.081 12.9188 96.875 25 96.875H75C87.081 96.875 96.875 87.081 96.875 75V25C96.875 12.9188 87.081 3.125 75 3.125H25ZM0 25C0 11.1929 11.1929 0 25 0H75C88.807 0 100 11.1929 100 25V75C100 88.807 88.807 100 75 100H25C11.1929 100 0 88.807 0 75V25Z" fill="#0C8C5E"/>
</g>
</g>
<path fill-rule="evenodd" clip-rule="evenodd" d="M27.7525 38.5859C23.7484 46.4078 23.9956 56.1103 29.2373 63.9256C34.479 71.7408 43.3621 75.6512 52.1186 74.9149C52.0142 74.9872 51.9093 75.059 51.8034 75.13C41.7699 81.8595 28.1809 79.1811 21.4514 69.1476C14.7219 59.1142 17.4003 45.5251 27.4338 38.7957C27.5397 38.7247 27.6459 38.6547 27.7525 38.5859Z" fill="#0C8C5E"/>
<path fill-rule="evenodd" clip-rule="evenodd" d="M38.1339 31.623C34.1297 39.445 34.377 49.1475 39.6187 56.9627C44.8604 64.778 53.7434 68.6884 62.4999 67.952C62.3956 68.0243 62.2906 68.0961 62.1847 68.1671C52.1512 74.8967 38.5622 72.2182 31.8327 62.1848C25.1033 52.1513 27.7816 38.5623 37.8151 31.8328C37.921 31.7618 38.0273 31.6918 38.1339 31.623Z" fill="#0C8C5E"/>
<path d="M48.1965 24.8699C38.163 31.5994 35.4846 45.1884 42.2141 55.2219C48.9436 65.2553 62.5326 67.9337 72.5661 61.2043C82.5995 54.4748 85.2779 40.8857 78.5485 30.8523C71.819 20.8188 58.2299 18.1404 48.1965 24.8699Z" fill="#0C8C5E"/>
</svg>
